<?xml version="1.0" standalone="no"?>
<!DOCTYPE svg PUBLIC "-//W3C//DTD SVG 20010904//EN"
 "http://www.w3.org/TR/2001/REC-SVG-20010904/DTD/svg10.dtd">
<svg version="1.0" xmlns="http://www.w3.org/2000/svg"
 width="1251.000000pt" height="1353.000000pt" viewBox="0 0 1251.000000 1353.000000"
 preserveAspectRatio="xMidYMid meet">

<g transform="translate(0.000000,1353.000000) scale(0.100000,-0.100000)"
fill="#000000" stroke="none">
<path d="M9590 8749 c-432 -259 -799 -477 -816 -484 -81 -36 -768 -463 -824
-512 -2 -2 5 -21 17 -42 41 -71 44 -150 41 -996 -3 -674 -6 -806 -18 -835 -27
-63 -68 -124 -112 -167 -58 -57 -1433 -868 -1507 -890 -63 -18 -172 -14 -238
9 -23 9 -372 201 -775 429 -540 304 -744 424 -774 455 -78 78 -74 30 -74 1009
0 739 2 879 15 921 8 27 11 52 7 55 -20 20 -366 228 -567 342 -700 395 -1892
1061 -1906 1064 -19 5 -56 -86 -85 -212 -18 -77 -19 -166 -19 -2240 l0 -2160
24 -74 c44 -132 129 -250 234 -324 74 -53 3600 -2044 3672 -2075 114 -47 196
-64 340 -69 164 -6 279 13 416 69 52 21 717 407 1759 1022 921 544 1700 1005
1730 1025 73 48 197 171 247 246 95 141 153 295 173 455 8 70 10 624 8 2080
l-3 1985 -22 75 c-40 141 -121 311 -148 309 -5 0 -363 -212 -795 -470z"/>
</g>
</svg>
